<svg width="100" height="100" viewBox="0 0 100 100" fill="none" xmlns="http://www.w3.org/2000/svg">
<rect width="100" height="100" rx="20" fill="#FF9315"/>
<path d="M52.9223 67.9581C46.4749 63.7606 43.0469 56.7429 45.1616 50.5678C46.2629 47.3541 47.9277 44.4733 49.7735 41.6531C51.8003 38.5555 54.0029 35.5587 55.8435 32.3601C59.4576 26.079 59.4679 19.6314 56.2106 13.1788C55.9831 12.7297 55.7608 12.2757 55.5747 11.8115C55.523 11.6854 55.6109 11.5139 55.7039 10.9589C58.8268 14.6721 61.231 18.4509 62.5495 22.7997C65.3414 32.0221 63.9041 40.4423 57.3791 47.8888C53.8478 51.9148 51.2988 56.3646 51.4487 61.9141C51.5056 63.8767 52.245 65.6525 52.9223 67.9581Z" fill="white"/>
<path d="M39.3962 47.6016C39.2308 48.439 39.1636 48.9183 39.0395 49.3825C37.416 55.5122 39.4428 60.5371 43.9565 64.8002C46.0453 66.7728 48.2685 68.6042 50.135 70.8038C55.445 77.0446 55.1709 82.8111 48.9303 88.9661C51.3397 82.0796 47.9635 77.6651 42.9948 73.8864C34.1018 67.126 34.0708 55.9158 38.5586 48.1162C38.631 47.9951 38.8327 47.9446 39.3962 47.6016Z" fill="white"/>
</svg>
