<svg width="200" height="200" viewBox="0 0 200 200" fill="none" xmlns="http://www.w3.org/2000/svg">
<rect width="200" height="200" rx="20" fill="#FF9315"/>
<path d="M138.333 100H128.827C127.151 99.9964 125.521 100.542 124.185 101.552C122.849 102.563 121.881 103.984 121.428 105.597L112.42 137.643C112.362 137.842 112.241 138.017 112.075 138.142C111.909 138.266 111.707 138.333 111.5 138.333C111.293 138.333 111.091 138.266 110.925 138.142C110.759 138.017 110.638 137.842 110.58 137.643L89.42 62.3567C89.362 62.1576 89.2409 61.9827 89.075 61.8583C88.9091 61.7339 88.7074 61.6667 88.5 61.6667C88.2927 61.6667 88.0909 61.7339 87.925 61.8583C87.7591 61.9827 87.6381 62.1576 87.58 62.3567L78.5717 94.4033C78.1211 96.0101 77.1586 97.426 75.8303 98.436C74.502 99.4461 72.8804 99.9952 71.2117 100H61.6667" stroke="white" stroke-width="4" stroke-linecap="round" stroke-linejoin="round"/>
</svg>
