<svg width="200" height="200" viewBox="0 0 200 200" fill="none" xmlns="http://www.w3.org/2000/svg">
<rect width="200" height="200" rx="20" fill="#FF9315"/>
<path d="M126.833 134.5V126.833C126.833 122.767 125.218 118.867 122.342 115.991C119.467 113.115 115.567 111.5 111.5 111.5H88.5C84.4333 111.5 80.5332 113.115 77.6577 115.991C74.7821 118.867 73.1667 122.767 73.1667 126.833V134.5M115.333 80.8333C115.333 89.3017 108.468 96.1667 100 96.1667C91.5316 96.1667 84.6667 89.3017 84.6667 80.8333C84.6667 72.365 91.5316 65.5 100 65.5C108.468 65.5 115.333 72.365 115.333 80.8333Z" stroke="white" stroke-width="4" stroke-linecap="round" stroke-linejoin="round"/>
</svg>
